<mxfile host="app.diagrams.net" modified="2024-03-21T10:34:58.484Z" agent="Mozilla/5.0 (Windows NT 10.0; Win64; x64; rv:109.0) Gecko/20100101 Firefox/115.0" etag="RfXVZ40sv_huTc22wCfx" version="24.0.7" type="device">
  <diagram name="Page-1" id="PT02kA5AdEUoJguPKS6Y">
    <mxGraphModel dx="1562" dy="854" grid="1" gridSize="10" guides="1" tooltips="1" connect="1" arrows="1" fold="1" page="0" pageScale="1" pageWidth="850" pageHeight="1100" math="0" shadow="0">
      <root>
        <mxCell id="0" />
        <mxCell id="1" parent="0" />
        <mxCell id="BzdyHj7zABlm9IAaxS7d-9" style="edgeStyle=orthogonalEdgeStyle;rounded=0;orthogonalLoop=1;jettySize=auto;html=1;" parent="1" source="ySlDb-rM-HuEXQJ25sTJ-1" target="BzdyHj7zABlm9IAaxS7d-8" edge="1">
          <mxGeometry relative="1" as="geometry" />
        </mxCell>
        <mxCell id="ySlDb-rM-HuEXQJ25sTJ-1" value="Study area" style="rounded=0;whiteSpace=wrap;html=1;" parent="1" vertex="1">
          <mxGeometry x="240" y="40" width="120" height="40" as="geometry" />
        </mxCell>
        <mxCell id="BzdyHj7zABlm9IAaxS7d-3" value="" style="edgeStyle=orthogonalEdgeStyle;rounded=0;orthogonalLoop=1;jettySize=auto;html=1;" parent="1" source="ySlDb-rM-HuEXQJ25sTJ-4" target="BzdyHj7zABlm9IAaxS7d-1" edge="1">
          <mxGeometry relative="1" as="geometry" />
        </mxCell>
        <mxCell id="ySlDb-rM-HuEXQJ25sTJ-4" value="Ind. com. single" style="rounded=0;whiteSpace=wrap;html=1;" parent="1" vertex="1">
          <mxGeometry x="440" y="40" width="120" height="40" as="geometry" />
        </mxCell>
        <mxCell id="ySlDb-rM-HuEXQJ25sTJ-10" value="&lt;h1 style=&quot;margin-top: 0px;&quot;&gt;Input&lt;/h1&gt;" style="text;html=1;whiteSpace=wrap;overflow=hidden;rounded=0;" parent="1" vertex="1">
          <mxGeometry x="40" y="40" width="70" height="40" as="geometry" />
        </mxCell>
        <mxCell id="ySlDb-rM-HuEXQJ25sTJ-19" value="&lt;div&gt;Ind. com. in study area&lt;br&gt;&lt;/div&gt;" style="rounded=0;whiteSpace=wrap;html=1;" parent="1" vertex="1">
          <mxGeometry x="400" y="200" width="120" height="40" as="geometry" />
        </mxCell>
        <mxCell id="ySlDb-rM-HuEXQJ25sTJ-21" value="" style="endArrow=classic;html=1;rounded=0;entryX=0.5;entryY=0;entryDx=0;entryDy=0;exitX=0.5;exitY=1;exitDx=0;exitDy=0;" parent="1" source="BzdyHj7zABlm9IAaxS7d-1" target="ySlDb-rM-HuEXQJ25sTJ-19" edge="1">
          <mxGeometry width="50" height="50" relative="1" as="geometry">
            <mxPoint x="580" y="160" as="sourcePoint" />
            <mxPoint x="490" y="300" as="targetPoint" />
          </mxGeometry>
        </mxCell>
        <mxCell id="ySlDb-rM-HuEXQJ25sTJ-23" value="Extract by location" style="text;html=1;align=center;verticalAlign=middle;whiteSpace=wrap;rounded=0;" parent="1" vertex="1">
          <mxGeometry x="500" y="160" width="60" height="40" as="geometry" />
        </mxCell>
        <mxCell id="ySlDb-rM-HuEXQJ25sTJ-24" value="Grid polygons with ind. com. inside" style="rounded=0;whiteSpace=wrap;html=1;" parent="1" vertex="1">
          <mxGeometry x="320" y="280" width="120" height="40" as="geometry" />
        </mxCell>
        <mxCell id="ySlDb-rM-HuEXQJ25sTJ-25" value="" style="endArrow=classic;html=1;rounded=0;entryX=0.5;entryY=0;entryDx=0;entryDy=0;exitX=0.5;exitY=1;exitDx=0;exitDy=0;" parent="1" source="ySlDb-rM-HuEXQJ25sTJ-19" target="ySlDb-rM-HuEXQJ25sTJ-24" edge="1">
          <mxGeometry width="50" height="50" relative="1" as="geometry">
            <mxPoint x="440" y="350" as="sourcePoint" />
            <mxPoint x="490" y="300" as="targetPoint" />
          </mxGeometry>
        </mxCell>
        <mxCell id="ySlDb-rM-HuEXQJ25sTJ-28" value="Ind. com." style="rounded=0;whiteSpace=wrap;html=1;" parent="1" vertex="1">
          <mxGeometry x="320" y="360" width="120" height="40" as="geometry" />
        </mxCell>
        <mxCell id="ySlDb-rM-HuEXQJ25sTJ-29" value="" style="endArrow=classic;html=1;rounded=0;entryX=0.5;entryY=0;entryDx=0;entryDy=0;exitX=0.5;exitY=1;exitDx=0;exitDy=0;" parent="1" source="ySlDb-rM-HuEXQJ25sTJ-24" target="ySlDb-rM-HuEXQJ25sTJ-28" edge="1">
          <mxGeometry width="50" height="50" relative="1" as="geometry">
            <mxPoint x="460" y="320" as="sourcePoint" />
            <mxPoint x="490" y="380" as="targetPoint" />
          </mxGeometry>
        </mxCell>
        <mxCell id="ySlDb-rM-HuEXQJ25sTJ-30" value="Centroids" style="text;html=1;align=center;verticalAlign=middle;whiteSpace=wrap;rounded=0;" parent="1" vertex="1">
          <mxGeometry x="380" y="320" width="60" height="40" as="geometry" />
        </mxCell>
        <mxCell id="ySlDb-rM-HuEXQJ25sTJ-31" value="&lt;h1 style=&quot;margin-top: 0px;&quot;&gt;Output&lt;/h1&gt;" style="text;html=1;whiteSpace=wrap;overflow=hidden;rounded=0;" parent="1" vertex="1">
          <mxGeometry x="40" y="360" width="100" height="40" as="geometry" />
        </mxCell>
        <mxCell id="ySlDb-rM-HuEXQJ25sTJ-33" value="&lt;h1 style=&quot;margin-top: 0px;&quot;&gt;Processing&lt;/h1&gt;" style="text;html=1;whiteSpace=wrap;overflow=hidden;rounded=0;" parent="1" vertex="1">
          <mxGeometry x="40" y="200" width="140" height="40" as="geometry" />
        </mxCell>
        <mxCell id="ySlDb-rM-HuEXQJ25sTJ-34" value="" style="endArrow=none;dashed=1;html=1;dashPattern=1 3;strokeWidth=2;rounded=0;" parent="1" edge="1">
          <mxGeometry width="50" height="50" relative="1" as="geometry">
            <mxPoint x="200" y="80" as="sourcePoint" />
            <mxPoint x="200" y="40" as="targetPoint" />
          </mxGeometry>
        </mxCell>
        <mxCell id="ySlDb-rM-HuEXQJ25sTJ-35" value="" style="endArrow=none;dashed=1;html=1;dashPattern=1 3;strokeWidth=2;rounded=0;" parent="1" edge="1">
          <mxGeometry width="50" height="50" relative="1" as="geometry">
            <mxPoint x="200" y="320" as="sourcePoint" />
            <mxPoint x="200" y="120" as="targetPoint" />
          </mxGeometry>
        </mxCell>
        <mxCell id="ySlDb-rM-HuEXQJ25sTJ-36" value="" style="endArrow=none;dashed=1;html=1;dashPattern=1 3;strokeWidth=2;rounded=0;" parent="1" edge="1">
          <mxGeometry width="50" height="50" relative="1" as="geometry">
            <mxPoint x="200" y="400" as="sourcePoint" />
            <mxPoint x="200" y="360" as="targetPoint" />
          </mxGeometry>
        </mxCell>
        <mxCell id="BzdyHj7zABlm9IAaxS7d-1" value="Ind. com. merged" style="rounded=0;whiteSpace=wrap;html=1;" parent="1" vertex="1">
          <mxGeometry x="440" y="120" width="120" height="40" as="geometry" />
        </mxCell>
        <mxCell id="BzdyHj7zABlm9IAaxS7d-4" value="Merge" style="text;html=1;align=center;verticalAlign=middle;whiteSpace=wrap;rounded=0;" parent="1" vertex="1">
          <mxGeometry x="500" y="80" width="60" height="40" as="geometry" />
        </mxCell>
        <mxCell id="BzdyHj7zABlm9IAaxS7d-7" value="" style="endArrow=classic;html=1;rounded=0;exitX=0.5;exitY=1;exitDx=0;exitDy=0;entryX=0.5;entryY=0;entryDx=0;entryDy=0;" parent="1" source="ySlDb-rM-HuEXQJ25sTJ-1" target="ySlDb-rM-HuEXQJ25sTJ-19" edge="1">
          <mxGeometry width="50" height="50" relative="1" as="geometry">
            <mxPoint x="300" y="380" as="sourcePoint" />
            <mxPoint x="370" y="150" as="targetPoint" />
          </mxGeometry>
        </mxCell>
        <mxCell id="BzdyHj7zABlm9IAaxS7d-8" value="Hexagonal grid" style="rounded=0;whiteSpace=wrap;html=1;" parent="1" vertex="1">
          <mxGeometry x="240" y="200" width="120" height="40" as="geometry" />
        </mxCell>
        <mxCell id="BzdyHj7zABlm9IAaxS7d-10" value="Extract by location" style="text;html=1;align=center;verticalAlign=middle;whiteSpace=wrap;rounded=0;" parent="1" vertex="1">
          <mxGeometry x="450" y="240" width="60" height="40" as="geometry" />
        </mxCell>
        <mxCell id="BzdyHj7zABlm9IAaxS7d-12" value="" style="endArrow=classic;html=1;rounded=0;entryX=0.5;entryY=0;entryDx=0;entryDy=0;exitX=0.5;exitY=1;exitDx=0;exitDy=0;" parent="1" source="BzdyHj7zABlm9IAaxS7d-8" target="ySlDb-rM-HuEXQJ25sTJ-24" edge="1">
          <mxGeometry width="50" height="50" relative="1" as="geometry">
            <mxPoint x="300" y="380" as="sourcePoint" />
            <mxPoint x="350" y="330" as="targetPoint" />
          </mxGeometry>
        </mxCell>
        <mxCell id="jXPnIOqvbS0e2DImyk7A-1" value="*Ind. com.: Indigenous communities" style="text;html=1;align=center;verticalAlign=middle;whiteSpace=wrap;rounded=0;" vertex="1" parent="1">
          <mxGeometry x="40" y="450" width="200" height="30" as="geometry" />
        </mxCell>
      </root>
    </mxGraphModel>
  </diagram>
</mxfile>
